<svg width="273" height="350" viewBox="0 0 273 350" fill="none" xmlns="http://www.w3.org/2000/svg">
    <path
        d="M240.428 296.727C249.003 310.165 259.139 322.086 268.474 334.6C270.079 336.752 271.569 338.95 272.391 341.535C273.158 343.943 273.407 346.324 271.322 348.213C269.38 349.973 267.123 349.628 264.919 348.738C258.258 346.047 252.629 341.745 247.323 337.051C221.951 314.601 202.55 287.696 188.444 256.989C175.906 229.695 168.538 201.069 166.603 170.998C165.518 154.125 165.819 137.42 169.156 120.827C170.575 113.772 171.19 113.471 178.189 114.191C186.098 115.005 193.91 114.4 201.584 112.198C208.894 110.101 210.399 111.414 208.78 118.973C206.687 128.746 203.816 138.349 202.419 148.274C199.377 169.882 200.147 191.362 204.42 212.756C210.499 243.191 223.438 270.665 240.428 296.727Z"
        fill="url(#paint0_linear_67_125)" />
    <path
        d="M158.791 279.766C141.48 259.807 128.685 237.769 122.371 212.175C116.606 188.804 117.116 165.403 121.32 141.914C122.26 136.665 123.193 131.415 124.085 126.158C124.751 122.233 123.061 119.197 120.433 116.456C118.821 114.774 116.471 113.163 117.628 110.358C118.858 107.378 121.753 106.736 124.6 106.494C141.061 105.093 149.859 115.765 146.849 133.536C144.756 145.887 142.013 158.121 140.467 170.573C136.511 202.424 142.881 232.044 159.092 259.707C168.535 275.821 180.883 289.302 195.135 301.194C198.822 304.27 202.572 307.342 205.302 311.346C206.36 312.897 207.993 314.874 206.277 316.767C204.784 318.414 202.72 317.327 201.04 316.639C195.383 314.319 190.907 310.23 186.365 306.33C176.742 298.069 167.388 289.51 158.791 279.766Z"
        fill="url(#paint1_linear_67_125)" />
    <path
        d="M72.0288 232.818C75.7794 219.317 80.7203 206.706 88.853 195.558C90.3382 193.523 92.029 191.606 93.8249 189.838C95.1062 188.576 96.6534 186.898 98.6732 188.079C100.637 189.228 100.06 191.458 99.7292 193.203C99.2347 195.807 98.411 198.362 97.5648 200.884C92.5396 215.857 88.7824 231.047 88.6565 246.987C88.4976 267.094 94.092 285.331 105.673 301.779C111.687 310.32 110.736 312.311 100.414 313.405C94.7081 314.009 89.0846 315.068 83.4725 316.242C77.8867 317.41 76.3073 316.504 74.4169 311.262C70.9105 301.54 69.038 291.411 68.4596 281.181C67.5481 265.061 67.6399 248.92 72.0288 232.818Z"
        fill="url(#paint2_linear_67_125)" />
    <path
        d="M98.8059 107.38C94.0074 106.827 93.0073 105.038 95.4691 101.446C99.348 95.7873 105.169 92.3515 110.889 88.9619C120.94 83.006 131.844 80.0057 143.604 79.8156C157.494 79.5912 171.256 81.139 185.062 82.1784C194.354 82.8781 203.378 81.0905 212.271 78.6246C218.95 76.7727 225.571 74.7137 232.233 72.7997C233.634 72.3972 235.091 72.1106 236.541 71.9777C238.159 71.8293 239.863 71.9303 240.672 73.6804C241.389 75.2283 240.547 76.5242 239.592 77.69C236.091 81.9638 231.724 85.25 227.266 88.4286C210.247 100.566 191.16 103.682 170.679 102.371C152.106 101.182 133.422 99.0116 114.885 102.86C109.555 103.967 104.379 105.816 98.8059 107.38Z"
        fill="url(#paint3_linear_67_125)" />
    <path
        d="M48.8193 233.575C52.3789 228.054 55.7386 222.729 60.523 218.557C62.0641 217.213 63.8408 215.108 66.0761 216.62C68.1704 218.037 67.3604 220.565 66.7591 222.563C64.1466 231.244 60.2729 239.488 57.9212 248.273C51.9131 270.717 53.0878 292.605 62.6081 313.932C65.7181 320.899 65.1405 322.234 57.8683 324.496C51.9919 326.324 46.3523 328.7 40.7314 331.171C36.0935 333.21 34.3984 332.267 33.7108 327.211C29.4104 295.584 31.7929 264.936 47.2598 236.246C47.7027 235.425 48.1974 234.631 48.8193 233.575Z"
        fill="url(#paint4_linear_67_125)" />
    <path
        d="M91.2754 137.424C97.8666 146.364 104.23 155.102 107.178 165.76C107.895 168.353 108.308 170.988 108.257 173.659C108.23 175.107 108.014 176.731 106.499 177.472C104.864 178.271 103.611 177.083 102.637 176.081C100.41 173.789 98.2431 171.413 96.2776 168.894C77.1988 144.45 54.8387 123.675 28.1434 107.718C27.0001 107.034 25.9248 106.235 24.8307 105.471C19.9019 102.03 18.3763 98.3293 20.095 94.0083C21.8938 89.4858 26.4408 86.9851 31.8229 87.5547C36.8947 88.0915 41.2496 90.3182 45.2963 93.2692C62.5443 105.847 77.9791 120.317 91.2754 137.424Z"
        fill="url(#paint5_linear_67_125)" />
    <path
        d="M194.525 10.4642C196.217 18.839 194.266 26.4336 191.43 33.823C187.746 43.4254 182.413 52.0102 174.054 58.2567C169.492 61.6649 164.512 64.322 158.558 61.1237C153.9 58.6215 152.111 54.1751 151.841 49.5037C150.767 30.9431 157.661 15.7187 172.055 3.93429C172.97 3.18582 174.086 2.6586 175.161 2.13558C184.535 -2.42734 191.125 0.309317 194.525 10.4642Z"
        fill="url(#paint6_linear_67_125)" />
    <path
        d="M19.0156 311.324C19.9667 319.52 21.2309 327.288 23.6795 334.796C24.7344 338.03 23.7654 340.195 20.9891 341.857C17.0985 344.185 13.2906 346.657 9.34832 348.893C5.4659 351.095 3.05697 350.026 2.10948 345.549C1.36713 342.042 0.874675 338.449 0.648666 334.87C-0.738951 312.896 -0.686679 291.09 8.95726 270.532C12.2033 263.613 15.8804 256.963 21.6736 251.807C23.05 250.582 24.6042 248.347 26.7883 249.762C28.9925 251.19 28.0258 253.685 27.4667 255.658C25.5774 262.324 23.2394 268.872 21.5591 275.587C18.6539 287.196 18.3521 299.055 19.0156 311.324Z"
        fill="url(#paint7_linear_67_125)" />
    <path
        d="M68.684 44.6705C73.836 51.6822 77.0864 59.0281 75.01 67.6217C72.5193 77.9305 62.8042 83.1417 52.7447 79.8635C40.1194 75.7491 31.4086 62.0081 33.1096 48.8896C34.4445 38.5937 45.5209 32.1513 55.8255 35.7067C60.8528 37.4412 65.1008 40.3383 68.684 44.6705Z"
        fill="url(#paint8_linear_67_125)" />
    <defs>
        <linearGradient id="paint0_linear_67_125" x1="173.415" y1="131.2" x2="343.538" y2="254.02"
            gradientUnits="userSpaceOnUse">
            <stop stop-color="#D675FF" />
            <stop offset="0.495192" stop-color="#C37BFE" />
            <stop offset="1" stop-color="#ED6BFF" />
        </linearGradient>
        <linearGradient id="paint1_linear_67_125" x1="123.507" y1="124.022" x2="271.59" y2="225.154"
            gradientUnits="userSpaceOnUse">
            <stop stop-color="#D675FF" />
            <stop offset="0.495192" stop-color="#C37BFE" />
            <stop offset="1" stop-color="#ED6BFF" />
        </linearGradient>
        <linearGradient id="paint2_linear_67_125" x1="70.8542" y1="198.457" x2="149.985"
            y2="239.291" gradientUnits="userSpaceOnUse">
            <stop stop-color="#D675FF" />
            <stop offset="0.495192" stop-color="#C37BFE" />
            <stop offset="1" stop-color="#ED6BFF" />
        </linearGradient>
        <linearGradient id="paint3_linear_67_125" x1="104.295" y1="74.8915" x2="112.131" y2="127.07"
            gradientUnits="userSpaceOnUse">
            <stop stop-color="#D675FF" />
            <stop offset="0.495192" stop-color="#C37BFE" />
            <stop offset="1" stop-color="#ED6BFF" />
        </linearGradient>
        <linearGradient id="paint4_linear_67_125" x1="34.2674" y1="225.794" x2="103.602"
            y2="260.012" gradientUnits="userSpaceOnUse">
            <stop stop-color="#D675FF" />
            <stop offset="0.495192" stop-color="#C37BFE" />
            <stop offset="1" stop-color="#ED6BFF" />
        </linearGradient>
        <linearGradient id="paint5_linear_67_125" x1="25.5434" y1="95.0157" x2="86.8789"
            y2="192.122" gradientUnits="userSpaceOnUse">
            <stop stop-color="#D675FF" />
            <stop offset="0.495192" stop-color="#C37BFE" />
            <stop offset="1" stop-color="#ED6BFF" />
        </linearGradient>
        <linearGradient id="paint6_linear_67_125" x1="154.728" y1="5.22703" x2="201.525"
            y2="57.4668" gradientUnits="userSpaceOnUse">
            <stop stop-color="#D675FF" />
            <stop offset="0.495192" stop-color="#C37BFE" />
            <stop offset="1" stop-color="#ED6BFF" />
        </linearGradient>
        <linearGradient id="paint7_linear_67_125" x1="1.94284" y1="257.721" x2="58.6477"
            y2="283.233" gradientUnits="userSpaceOnUse">
            <stop stop-color="#D675FF" />
            <stop offset="0.495192" stop-color="#C37BFE" />
            <stop offset="1" stop-color="#ED6BFF" />
        </linearGradient>
        <linearGradient id="paint8_linear_67_125" x1="35.8461" y1="38.5738" x2="67.9572"
            y2="86.4459" gradientUnits="userSpaceOnUse">
            <stop stop-color="#D675FF" />
            <stop offset="0.495192" stop-color="#C37BFE" />
            <stop offset="1" stop-color="#ED6BFF" />
        </linearGradient>
    </defs>
</svg>